<svg xmlns="http://www.w3.org/2000/svg" width="190.677" height="103.714" viewBox="0 0 190.677 103.714"><rect width="190.677" height="103.715" rx="4.679" transform="translate(0 0)" fill="#fff"/><path d="M612.858,1000.728V977.371h24.729l2.654,3.459,2.74-3.459h89.765v21.745a10.369,10.369,0,0,1-5.064,1.611h-49.7l-2.992-3.682v3.682h-9.8v-6.284a8.225,8.225,0,0,1-4.234.877h-3.337v5.407H642.772l-2.649-3.533-2.69,3.533Z" transform="translate(-563.024 -921.889)" fill="#fff" fill-rule="evenodd"/><path d="M593.107,969.441l5.577-13h9.644l3.164,7.283V956.44h11.99l1.883,5.264,1.828-5.264h53.816v2.645a11.614,11.614,0,0,1,7.479-2.645l17.462.061,3.11,7.187V956.44h10.032l2.762,4.128V956.44H731.98V979.8H721.854l-2.646-4.142V979.8h-14.74l-1.483-3.682h-3.963l-1.459,3.682h-10a9.881,9.881,0,0,1-6.559-2.592V979.8H665.937l-2.992-3.682V979.8H606.9l-1.481-3.682h-3.951L600,979.8h-6.89V969.441Z" transform="translate(-572.152 -931.563)" fill="#fff" fill-rule="evenodd"/><path d="M600.648,958.409,593.127,975.9h4.9l1.388-3.5h8.068l1.38,3.5h5l-7.514-17.489Zm2.782,4.07,2.459,6.119h-4.926l2.467-6.119Z" transform="translate(-572.142 -930.653)" fill="#016fd0" fill-rule="evenodd"/><path d="M607.664,975.9V958.407l6.959.026,4.048,11.275,3.951-11.3h6.9V975.9h-4.372V963.009L620.518,975.9h-3.834l-4.647-12.886V975.9Z" transform="translate(-565.424 -930.654)" fill="#016fd0" fill-rule="evenodd"/><path d="M624.661,975.9V958.407h14.267v3.912h-9.849v2.991H638.7v3.682h-9.619V972.1h9.849v3.8Z" transform="translate(-557.569 -930.654)" fill="#016fd0" fill-rule="evenodd"/><path d="M636.15,958.409V975.9h4.372v-6.214h1.841L647.6,975.9h5.343l-5.752-6.444a5.325,5.325,0,0,0,4.8-5.372c0-3.68-2.888-5.673-6.112-5.673Zm4.372,3.911h5a2.007,2.007,0,0,1,2.07,1.841A1.975,1.975,0,0,1,645.584,966h-5.062V962.32Z" transform="translate(-552.259 -930.653)" fill="#016fd0" fill-rule="evenodd"/><path d="M652.669,975.9H648.2V958.407h4.464V975.9Z" transform="translate(-546.688 -930.654)" fill="#016fd0" fill-rule="evenodd"/><path d="M661.17,975.9h-.963c-4.661,0-7.492-3.674-7.492-8.673,0-5.122,2.8-8.815,8.687-8.815h4.833v4.142h-5.009c-2.391,0-4.081,1.864-4.081,4.717,0,3.386,1.933,4.809,4.718,4.809h1.151L661.17,975.9Z" transform="translate(-544.604 -930.654)" fill="#016fd0" fill-rule="evenodd"/><path d="M667.381,958.409,659.86,975.9h4.9l1.388-3.5h8.068l1.382,3.5h5l-7.514-17.489Zm2.782,4.07,2.459,6.119H667.7l2.467-6.119Z" transform="translate(-541.302 -930.653)" fill="#016fd0" fill-rule="evenodd"/><path d="M674.393,975.9V958.407h5.559l7.1,10.988V958.407h4.372V975.9h-5.379l-7.277-11.275V975.9Z" transform="translate(-534.585 -930.654)" fill="#016fd0" fill-rule="evenodd"/><path d="M614.9,996.827V979.338h14.267v3.912h-9.849v2.991h9.619v3.682h-9.619v3.106h9.849v3.8Z" transform="translate(-562.078 -920.98)" fill="#016fd0" fill-rule="evenodd"/><path d="M662.715,996.827V979.338h14.267v3.912h-9.849v2.991h9.573v3.682h-9.573v3.106h9.849v3.8Z" transform="translate(-539.982 -920.98)" fill="#016fd0" fill-rule="evenodd"/><path d="M625.092,996.827l6.947-8.636-7.112-8.852h5.508l4.236,5.472,4.25-5.472h5.293l-7.018,8.744,6.959,8.744h-5.507l-4.113-5.386-4.013,5.386Z" transform="translate(-557.446 -920.98)" fill="#016fd0" fill-rule="evenodd"/><path d="M638.432,979.34v17.489h4.487v-5.523h4.6c3.894,0,6.846-2.066,6.846-6.084,0-3.328-2.314-5.882-6.277-5.882Zm4.487,3.955h4.846a1.974,1.974,0,0,1,2.158,2.013,2.017,2.017,0,0,1-2.172,2.014h-4.832V983.3Z" transform="translate(-551.205 -920.98)" fill="#016fd0" fill-rule="evenodd"/><path d="M650.629,979.338v17.489H655v-6.213h1.841l5.242,6.213h5.343l-5.752-6.444a5.326,5.326,0,0,0,4.8-5.372c0-3.679-2.889-5.673-6.112-5.673ZM655,983.251h5a2.006,2.006,0,0,1,2.071,1.841,1.976,1.976,0,0,1-2.006,1.841H655v-3.682Z" transform="translate(-545.568 -920.98)" fill="#016fd0" fill-rule="evenodd"/><path d="M674.032,996.827v-3.8h8.751c1.294,0,1.856-.7,1.856-1.467,0-.735-.56-1.478-1.856-1.478h-3.954c-3.437,0-5.351-2.094-5.351-5.238,0-2.8,1.753-5.509,6.861-5.509h8.514l-1.841,3.935h-7.363c-1.408,0-1.841.74-1.841,1.445a1.524,1.524,0,0,0,1.61,1.525h4.142c3.831,0,5.494,2.173,5.494,5.02,0,3.059-1.853,5.565-5.7,5.565Z" transform="translate(-535.008 -920.98)" fill="#016fd0" fill-rule="evenodd"/><path d="M685.007,996.827v-3.8h8.38c1.3,0,1.855-.7,1.855-1.467,0-.735-.559-1.478-1.855-1.478H689.8c-3.436,0-5.35-2.094-5.35-5.238,0-2.8,1.752-5.509,6.859-5.509h8.346l-1.841,3.935h-7.2c-1.408,0-1.841.74-1.841,1.445a1.525,1.525,0,0,0,1.611,1.525h3.771c3.833,0,5.495,2.173,5.495,5.02,0,3.059-1.852,5.565-5.7,5.565Z" transform="translate(-529.936 -920.98)" fill="#016fd0" fill-rule="evenodd"/></svg>