<svg xmlns="http://www.w3.org/2000/svg" width="190.677" height="103.714" viewBox="0 0 190.677 103.714"><rect width="190.677" height="103.715" rx="4.679" transform="translate(0 0)" fill="#fff"/><g transform="translate(49.321 17.847)"><path d="M330.1,1002.552v-4.74a2.78,2.78,0,0,0-3-3,3.117,3.117,0,0,0-2.686,1.342,2.764,2.764,0,0,0-2.528-1.342,2.552,2.552,0,0,0-2.212,1.106v-.948h-1.66v7.584h1.66v-4.188c0-1.342.711-1.975,1.817-1.975s1.66.712,1.66,1.975v4.188h1.658v-4.188a1.748,1.748,0,0,1,1.817-1.975c1.105,0,1.658.712,1.658,1.975v4.188Zm24.569-7.584h-2.686v-2.291h-1.658v2.291h-1.5v1.5h1.5v3.477c0,1.737.711,2.765,2.607,2.765a4.4,4.4,0,0,0,2.053-.554l-.474-1.421a2.6,2.6,0,0,1-1.421.395c-.791,0-1.107-.474-1.107-1.263v-3.4h2.686v-1.5Zm14.062-.158a2.225,2.225,0,0,0-1.974,1.106v-.948H365.1v7.584h1.66v-4.266c0-1.263.553-1.975,1.579-1.975a4.619,4.619,0,0,1,1.028.158l.474-1.579a5.218,5.218,0,0,0-1.107-.079Zm-21.25.789a5.431,5.431,0,0,0-3.082-.789c-1.895,0-3.16.947-3.16,2.449,0,1.264.949,1.974,2.607,2.212l.791.078c.869.159,1.342.4,1.342.791,0,.553-.632.947-1.739.947a4.367,4.367,0,0,1-2.528-.789l-.79,1.263a5.579,5.579,0,0,0,3.239.949c2.212,0,3.477-1.028,3.477-2.449,0-1.344-1.028-2.055-2.607-2.291l-.791-.079c-.711-.079-1.263-.237-1.263-.711,0-.552.553-.87,1.421-.87a5.7,5.7,0,0,1,2.37.631l.712-1.342Zm44.081-.789a2.229,2.229,0,0,0-1.975,1.106v-.948h-1.658v7.584h1.658v-4.266c0-1.263.554-1.975,1.581-1.975a4.621,4.621,0,0,1,1.026.158l.474-1.579a5.213,5.213,0,0,0-1.106-.079ZM370.39,998.76a3.8,3.8,0,0,0,4.03,3.951,3.931,3.931,0,0,0,2.686-.87l-.791-1.342a3.191,3.191,0,0,1-1.974.71,2.242,2.242,0,0,1-2.291-2.449,2.331,2.331,0,0,1,2.291-2.449,3.183,3.183,0,0,1,1.974.712l.791-1.344a3.936,3.936,0,0,0-2.686-.868,3.8,3.8,0,0,0-4.03,3.949Zm15.326,0v-3.792h-1.66v.948a2.853,2.853,0,0,0-2.37-1.106,3.953,3.953,0,0,0,0,7.9,2.656,2.656,0,0,0,2.37-1.107v.949h1.66Zm-6.083,0a2.3,2.3,0,1,1,4.581,0,2.3,2.3,0,1,1-4.581,0ZM359.8,994.81a3.952,3.952,0,0,0,.079,7.9,4.824,4.824,0,0,0,3.081-1.028l-.79-1.184a3.774,3.774,0,0,1-2.212.789,2.132,2.132,0,0,1-2.291-1.816h5.609v-.633c.08-2.449-1.342-4.028-3.476-4.028Zm0,1.421a1.848,1.848,0,0,1,1.9,1.817H357.75a2,2,0,0,1,2.054-1.817Zm41.16,2.528v-6.794H399.3v3.95a2.855,2.855,0,0,0-2.37-1.106,3.953,3.953,0,0,0,0,7.9,2.656,2.656,0,0,0,2.37-1.107v.949h1.659Zm-6.084,0a2.3,2.3,0,1,1,4.582,0,2.3,2.3,0,1,1-4.582,0Zm-55.457,0v-3.792h-1.66v.948a2.855,2.855,0,0,0-2.37-1.106,3.953,3.953,0,0,0,0,7.9,2.657,2.657,0,0,0,2.37-1.107v.949h1.66Zm-6.163,0a2.3,2.3,0,1,1,4.582,0,2.3,2.3,0,1,1-4.582,0Z" transform="translate(-313.353 -931.294)"/><rect width="24.885" height="44.714" transform="translate(33.574 6.083)" fill="#ff5f00"/><path d="M349.981,978.911A28.518,28.518,0,0,1,360.8,956.553a28.44,28.44,0,1,0,0,44.714A28.4,28.4,0,0,1,349.981,978.911Z" transform="translate(-314.826 -950.471)" fill="#eb001b"/><path d="M392.3,978.911a28.41,28.41,0,0,1-45.977,22.356,28.5,28.5,0,0,0,0-44.714A28.41,28.41,0,0,1,392.3,978.911Z" transform="translate(-300.269 -950.471)" fill="#f79e1b"/></g></svg>