<?xml version="1.0" encoding="UTF-8"?>
<svg width="131px" height="53px" viewBox="0 0 131 53" version="1.1" xmlns="http://www.w3.org/2000/svg" xmlns:xlink="http://www.w3.org/1999/xlink">
    <!-- Generator: Sketch 48.2 (47327) - http://www.bohemiancoding.com/sketch -->
    <title>logo-rx</title>
    <desc>Created with Sketch.</desc>
    <defs></defs>
    <g id="Page-1" stroke="none" stroke-width="1" fill="none" fill-rule="evenodd">
        <g id="logo-rx" fill="#FFFFFF" fill-rule="nonzero">
            <path d="M21.6,21.437 L15.545,21.437 C15.4487208,21.4392398 15.3687255,21.3632667 15.366,21.267 L15.366,19.767 C15.3670389,19.6680782 15.4461091,19.5876828 15.545,19.585 L21.6,19.585 C22.125799,19.5899438 22.5491221,20.018179 22.548,20.544 C22.5467092,20.7902056 22.4446095,21.0251332 22.2654866,21.1940529 C22.0863637,21.3629726 21.8458584,21.4511345 21.6,21.438 L21.6,21.437 Z M48.595,36.079 C48.5925462,36.1472066 48.5620917,36.2113872 48.51081,36.2564244 C48.4595282,36.3014615 48.3919525,36.3233738 48.324,36.317 L44.398,36.317 C44.3309695,36.3219363 44.2648219,36.2993433 44.2148168,36.254433 C44.1648116,36.2095227 44.1352675,36.1461738 44.133,36.079 L44.133,28.11 C44.1400017,27.9695503 44.2574054,27.8601213 44.398,27.863 L48.319,27.863 C48.4618956,27.8567765 48.5829839,27.9671411 48.59,28.11 L48.595,36.079 Z M130.864,19.682 L130.866,39.715 C130.900268,41.7308622 130.183454,43.6873971 128.855,45.204 C127.585484,46.5210579 125.828148,47.25497 123.999,47.232 L120.651,47.232 C120.107694,47.2329516 119.565219,47.1894734 119.029,47.102 C118.989236,47.1474461 118.947182,47.1908357 118.903,47.232 L111.544,47.232 L111.544,32.015 L111.558,29.882 L107.843,29.882 C106.925,30.933 106.192,31.766 104.769,33.382 L107.374,33.382 L107.374,52.73 L83.974,52.73 L83.974,52.722 L55.174,52.722 L55.174,51.763 C54.027661,52.4017139 52.7362599,52.7347232 51.424,52.73 L41.276,52.73 C39.9555758,52.7250634 38.6571689,52.3913543 37.498,51.759 L37.498,52.692 L26.888,52.692 L27.011,52.692 C25.905473,52.7077495 24.8109596,52.4707189 23.811,51.999 L23.811,52.707 L0.411,52.707 L0.411,29.276 L4.511,29.276 L4.511,22.576 L0.411,22.576 L0.397,0.507 L26.097,0.507 C25.997,0.512 25.892,0.525 25.797,0.531 L26.242,0.507 L26.098,0.507 C28.5713776,0.420590238 30.9544513,1.44164566 32.598,3.292 C33.9719283,4.71315356 34.7599395,6.59981025 34.805,8.576 C34.805,8.746 34.797,8.873 34.797,8.984 L34.797,17.609 C36.278214,15.4861054 38.7004476,14.2175296 41.289,14.209 L51.437,14.209 C52.7466044,14.2064657 54.0359331,14.532408 55.187,15.157 L55.187,14.209 L71.067,14.204 L75.244,14.204 L75.244,14.209 L118.335,14.209 L118.335,19.682 L130.864,19.682 Z M114.308,17.183 L110.348,17.183 L110.342,22.363 L112.064,22.363 C111.837,23.052 111.512,24.014 111.512,24.014 L112.922,26.444 L115.522,22.121 L115.522,17.183 L114.308,17.183 Z M96.03,17.183 L96.03,26.92 L97.761,26.92 C97.125,27.535 96.31,28.379 95.68,29.02 C94.914,28.249 94.226,27.545 93.606,26.92 L95.312,26.92 L95.312,17.183 L81.48,17.183 L73.648,17.183 L73.648,25.183 C73.234,25.715 70.436,29.431 70.148,29.82 L70.148,26.931 L72.284,26.931 L72.284,17.183 L58.147,17.183 L58.147,26.936 L62.247,26.936 L62.247,36.351 L58.147,36.351 L58.147,49.751 L72.247,49.751 L72.247,36.351 L69.784,36.351 C70.325,35.829 71.323,34.828 71.323,34.828 C71.368,34.787 71.447,34.705 71.494,34.668 C71.507,34.668 71.575,34.744 71.575,34.744 C71.754,34.915 72.932,36.158 73.443,36.696 C73.324,36.751 73.193,36.826 73.193,36.826 L73.193,49.752 L85.193,49.752 L85.193,36.352 L80.504,36.352 C79.932,35.534 77.673,32.285 77.673,32.285 C77.6686083,32.2795078 77.6620288,32.2762181 77.655,32.276 C77.5002277,32.0372038 77.4140885,31.7604515 77.406,31.476 C77.3935826,31.1945489 77.4767591,30.9171762 77.642,30.689 C77.822,30.396 79.164,28.634 80.486,26.936 L84.907,26.936 C85.527,27.636 90.587,33.336 91.117,33.925 L91.117,36.355 L86.944,36.355 L86.944,49.755 L104.425,49.755 L104.425,36.355 L100.354,36.355 L100.354,33.925 C100.873,33.325 105.883,27.635 106.502,26.925 L109.849,26.925 L109.849,17.183 L96.03,17.183 Z M33.33,32.218 C32.275,32.218 32.167,32.076 31.884,30.233 C31.7816888,29.3895335 31.5978284,28.5579755 31.335,27.75 C30.7929305,26.2887822 30.056293,24.9073346 29.145,23.643 C30.12472,23.1214837 30.8998494,22.2846964 31.345,21.268 C31.653642,20.568589 31.8188997,19.8143881 31.831,19.05 L31.831,8.922 L31.839,8.878 C31.8785131,7.52453375 31.3493761,6.21637937 30.38,5.271 C29.3321633,4.0767985 27.80039,3.42063931 26.213,3.486 L3.374,3.486 L3.382,19.608 L7.482,19.608 L7.482,32.249 L3.382,32.249 L3.382,49.749 L20.867,49.749 L20.867,32.235 L15.383,32.235 L15.383,29.198 L22.53,29.198 L22.53,44.223 C22.5196823,44.3390302 22.5156764,44.4555352 22.518,44.572 C22.4814495,45.8421892 22.8491105,47.091186 23.568,48.139 C24.3900523,49.1456197 25.6203653,49.730312 26.92,49.732 L34.544,49.732 L34.544,32.218 L33.33,32.218 Z M51.436,17.179 L41.288,17.179 C38.4682323,17.2206849 36.2143996,19.5371489 36.25,22.357 L36.25,44.557 C36.2087912,47.3827487 38.4623622,49.7087846 41.288,49.757 L51.436,49.757 C54.261714,49.7082367 56.5155425,47.3828581 56.476,44.557 L56.476,22.357 C56.510488,19.5368209 54.2560819,17.220687 51.436,17.179 Z M120.504,27.969 C120.414569,28.0745452 120.36596,28.2086652 120.367,28.347 C120.369746,28.4507253 120.404695,28.551027 120.467,28.634 C120.981574,29.0877749 121.57279,29.4463643 122.213,29.693 C122.404,29.786 122.574,29.874 122.756,29.953 C122.74,29.694 122.74,29.414 122.74,29.414 C122.741367,28.6315069 122.158578,27.9710414 121.382,27.875 C120.731,27.75 120.564,27.916 120.504,27.969 Z M115.475,23.593 C114.864672,24.1923946 114.52029,25.0115633 114.519,25.867 C114.517585,25.8884627 114.519269,25.9100174 114.524,25.931 C114.524,25.954 114.524,29.403 114.524,29.403 C114.524,32.231 115.246,32.743 117.714,34.077 L118.234,34.355 L119.093,34.819 C119.821,35.219 119.987,35.326 120.714,35.759 C120.96,35.907 120.966,36.104 120.878,36.239 C120.788116,36.3545805 120.627929,36.3883932 120.499,36.319 C120.309,36.239 119.216,35.636 118.299,35.137 L118.029,34.984 L114.512,34.984 L114.512,44.265 L117.619,44.265 C117.619,44.265 118.067,43.765 118.101,43.744 C118.901349,44.1028784 119.771015,44.2807724 120.648,44.265 L123.996,44.265 C125.013494,44.2905885 125.995342,43.8895826 126.704,43.159 C127.504542,42.1989599 127.930768,40.9817314 127.904,39.732 L127.904,39.585 C127.904,39.524 127.927,35.301 127.927,35.301 L127.927,34.91 C127.927,32.932 127.288,32.28 124.052,30.61 L127.883,30.61 L127.883,22.658 L124.796,22.658 C124.796,22.658 124.356,23.168 124.328,23.191 C123.73079,22.8485139 123.057278,22.6611407 122.369,22.646 L117.964,22.646 C117.042373,22.6255122 116.149088,22.9652477 115.474,23.593 L115.475,23.593 Z" id="Shape"></path>
        </g>
    </g>
</svg>