<svg xmlns="http://www.w3.org/2000/svg" width="190.677" height="103.714" viewBox="0 0 190.677 103.714"><rect width="190.677" height="103.715" rx="4.679" transform="translate(0 0)" fill="#fff"/><g transform="translate(27.165 29.74)"><path d="M198.954,1001.852H187.829l6.953-42.734h11.126Z" transform="translate(-139.847 -958.354)" fill="#005ca8"/><path d="M193.634,959.118,183.028,988.51l-1.255-6.33v0l-3.743-19.215s-.452-3.848-5.278-3.848H155.219l-.206.724a41.515,41.515,0,0,1,11.637,4.885l9.666,37.125h11.592l17.7-42.734Z" transform="translate(-155.013 -958.354)" fill="#005ca8"/><path d="M250.558,1001.852h10.216l-8.907-42.734h-8.945a5.11,5.11,0,0,0-5.135,3.184l-16.592,39.55h11.6l2.321-6.347h14.143Zm-12.243-15.117,5.846-15.993,3.29,15.993Z" transform="translate(-124.427 -958.354)" fill="#005ca8"/><path d="M231.8,969.636l1.588-9.178a32.125,32.125,0,0,0-10.007-1.863c-5.521,0-18.632,2.414-18.632,14.146,0,11.042,15.389,11.178,15.389,16.975s-13.8,4.761-18.357,1.1l-1.655,9.593a31.148,31.148,0,0,0,12.56,2.416c7.59,0,19.046-3.933,19.046-14.63,0-11.111-15.527-12.146-15.527-16.976S227.04,967.013,231.8,969.636Z" transform="translate(-134.164 -958.595)" fill="#005ca8"/><path d="M181.773,982.182l-3.743-19.215s-.452-3.848-5.278-3.848H155.219l-.206.724a43.108,43.108,0,0,1,16.514,8.29A33.312,33.312,0,0,1,181.773,982.182Z" transform="translate(-155.013 -958.354)" fill="#f6a723"/></g></svg>